<svg width="39" height="39" viewBox="0 0 39 39" fill="none" xmlns="http://www.w3.org/2000/svg">
<path d="M29.7476 20.5859C29.562 20.4 29.3416 20.2525 29.0989 20.1519C28.8563 20.0513 28.5962 19.9995 28.3336 19.9995C28.0709 19.9995 27.8108 20.0513 27.5682 20.1519C27.3255 20.2525 27.1051 20.4 26.9196 20.5859L23.7316 23.7739C22.2536 23.3339 19.4956 22.3339 17.7476 20.5859C15.9996 18.8379 14.9996 16.0799 14.5596 14.6019L17.7476 11.4139C17.9334 11.2283 18.0809 11.0079 18.1815 10.7653C18.2822 10.5227 18.334 10.2626 18.334 9.99991C18.334 9.73725 18.2822 9.47716 18.1815 9.23453C18.0809 8.9919 17.9334 8.77149 17.7476 8.58591L9.74755 0.585914C9.56198 0.400022 9.34157 0.252547 9.09894 0.151925C8.85631 0.0513039 8.59622 -0.000488281 8.33355 -0.000488281C8.07089 -0.000488281 7.8108 0.0513039 7.56817 0.151925C7.32554 0.252547 7.10513 0.400022 6.91955 0.585914L1.49555 6.00991C0.735554 6.76991 0.307553 7.81391 0.323553 8.87991C0.369553 11.7279 1.12355 21.6199 8.91955 29.4159C16.7156 37.2119 26.6076 37.9639 29.4576 38.0119H29.5136C30.5696 38.0119 31.5676 37.5959 32.3236 36.8399L37.7476 31.4159C37.9334 31.2303 38.0809 31.0099 38.1815 30.7673C38.2822 30.5247 38.334 30.2646 38.334 30.0019C38.334 29.7392 38.2822 29.4792 38.1815 29.2365C38.0809 28.9939 37.9334 28.7735 37.7476 28.5879L29.7476 20.5859ZM29.4936 34.0099C26.9976 33.9679 18.4576 33.2979 11.7476 26.5859C5.01555 19.8539 4.36355 11.2839 4.32355 8.83791L8.33355 4.82791L13.5056 9.99991L10.9196 12.5859C10.6845 12.8208 10.5116 13.1106 10.4167 13.4291C10.3217 13.7475 10.3076 14.0846 10.3756 14.4099C10.4236 14.6399 11.5976 20.0939 14.9176 23.4139C18.2376 26.7339 23.6916 27.9079 23.9216 27.9559C24.2466 28.0258 24.5841 28.0128 24.9028 27.9181C25.2216 27.8234 25.5114 27.65 25.7456 27.4139L28.3336 24.8279L33.5056 29.9999L29.4936 34.0099Z" fill="#256EFF"/>
</svg>
