<svg width="33" height="40" viewBox="0 0 33 40" fill="none" xmlns="http://www.w3.org/2000/svg">
<path d="M16.6669 24C21.0789 24 24.6669 20.412 24.6669 16C24.6669 11.588 21.0789 8 16.6669 8C12.2549 8 8.66687 11.588 8.66687 16C8.66687 20.412 12.2549 24 16.6669 24ZM16.6669 12C18.8729 12 20.6669 13.794 20.6669 16C20.6669 18.206 18.8729 20 16.6669 20C14.4609 20 12.6669 18.206 12.6669 16C12.6669 13.794 14.4609 12 16.6669 12ZM15.5069 39.628C15.8454 39.8697 16.251 39.9997 16.6669 39.9997C17.0829 39.9997 17.4884 39.8697 17.8269 39.628C18.4349 39.198 32.7249 28.88 32.6669 16C32.6669 7.178 25.4889 0 16.6669 0C7.84492 0 0.666924 7.178 0.666924 15.99C0.608924 28.88 14.8989 39.198 15.5069 39.628ZM16.6669 4C23.2849 4 28.6669 9.382 28.6669 16.01C28.7089 24.886 19.8909 32.856 16.6669 35.47C13.4449 32.854 4.62492 24.882 4.66692 16C4.66692 9.382 10.0489 4 16.6669 4Z" fill="#256EFF"/>
<path d="M16.6669 24C21.0789 24 24.6669 20.412 24.6669 16C24.6669 11.588 21.0789 8 16.6669 8C12.2549 8 8.66687 11.588 8.66687 16C8.66687 20.412 12.2549 24 16.6669 24ZM16.6669 12C18.8729 12 20.6669 13.794 20.6669 16C20.6669 18.206 18.8729 20 16.6669 20C14.4609 20 12.6669 18.206 12.6669 16C12.6669 13.794 14.4609 12 16.6669 12ZM15.5069 39.628C15.8454 39.8697 16.251 39.9997 16.6669 39.9997C17.0829 39.9997 17.4884 39.8697 17.8269 39.628C18.4349 39.198 32.7249 28.88 32.6669 16C32.6669 7.178 25.4889 0 16.6669 0C7.84492 0 0.666924 7.178 0.666924 15.99C0.608924 28.88 14.8989 39.198 15.5069 39.628ZM16.6669 4C23.2849 4 28.6669 9.382 28.6669 16.01C28.7089 24.886 19.8909 32.856 16.6669 35.47C13.4449 32.854 4.62492 24.882 4.66692 16C4.66692 9.382 10.0489 4 16.6669 4Z" fill="#256EFF"/>
</svg>
